<?xml version="1.0" encoding="utf-8"?>
<!-- Generator: Adobe Illustrator 28.0.0, SVG Export Plug-In . SVG Version: 6.00 Build 0)  -->
<svg version="1.1" id="Capa_1" xmlns="http://www.w3.org/2000/svg" xmlns:xlink="http://www.w3.org/1999/xlink" x="0px" y="0px"
	 viewBox="0 0 220 50" style="enable-background:new 0 0 220 50;" xml:space="preserve">
<style type="text/css">
	.st0{fill:#002946;}
</style>
<g>
	<g>
		<g>
			<g>
				<polygon class="st0" points="13.4,24.7 29.9,34.1 29.9,25.3 21.2,20.3 				"/>
				<polygon class="st0" points="13.5,35.7 21.2,40.1 29.1,35.6 21.3,31.2 				"/>
				<path class="st0" d="M21.1,0.6L0,12.5v24.7l21.1,12.3l21-12.3V12.5L21.1,0.6z M31.7,24.4v11.7l-1,0.5l-9.6,5.5L10,35.7l9.6-5.5
					L10,24.8V14.4v-0.4l11.1-6.4l11.1,6.4l-9.4,5.4L31.7,24.4z"/>
			</g>
		</g>
	</g>
	<g>
		<g>
			<path class="st0" d="M58.4,39.1c-2-0.8-3.5-1.7-4.7-2.9l1-1.6c1.1,1.1,2.5,2,4.3,2.7c1.8,0.7,3.7,1.1,5.6,1.1
				c2.9,0,5-0.5,6.5-1.6c1.5-1.1,2.2-2.5,2.2-4.2c0-1.3-0.4-2.4-1.2-3.2s-1.7-1.4-2.9-1.8c-1.1-0.4-2.7-0.9-4.6-1.3
				c-2.2-0.5-4-1.1-5.3-1.6c-1.3-0.5-2.5-1.3-3.4-2.4c-0.9-1.1-1.4-2.5-1.4-4.3c0-1.5,0.4-2.8,1.2-4c0.8-1.2,2-2.2,3.5-2.9
				c1.6-0.7,3.6-1.1,5.9-1.1c1.7,0,3.3,0.2,4.9,0.7c1.6,0.5,3,1.1,4.2,2l-0.8,1.8c-1.2-0.8-2.5-1.5-4-1.9s-2.9-0.6-4.3-0.6
				c-2.8,0-4.9,0.6-6.3,1.7c-1.4,1.1-2.1,2.6-2.1,4.3c0,1.3,0.4,2.4,1.2,3.2c0.8,0.8,1.7,1.4,2.9,1.8c1.1,0.4,2.7,0.9,4.7,1.4
				c2.2,0.5,4,1.1,5.3,1.6c1.3,0.5,2.4,1.3,3.4,2.3c0.9,1,1.4,2.5,1.4,4.2c0,1.5-0.4,2.8-1.2,4c-0.8,1.2-2,2.2-3.6,2.9
				c-1.6,0.7-3.6,1.1-6,1.1C62.4,40.2,60.3,39.8,58.4,39.1z"/>
			<path class="st0" d="M82.3,36.9c-2.1-2.2-3.2-5.4-3.2-9.7V10h2.2v17.2c0,3.7,0.8,6.4,2.5,8.3c1.7,1.8,4.1,2.7,7.3,2.7
				c3.2,0,5.6-0.9,7.3-2.7c1.7-1.8,2.5-4.6,2.5-8.3V10h2.2v17.3c0,4.2-1.1,7.4-3.2,9.7c-2.1,2.2-5.1,3.3-8.9,3.3
				C87.4,40.2,84.4,39.1,82.3,36.9z"/>
			<path class="st0" d="M138.4,40l0-25.7L125.8,36h-1.1l-12.6-21.6V40H110V10h1.8l13.4,23.2L138.7,10h1.8l0,30H138.4z"/>
			<path class="st0" d="M166.2,31.6h-17.4l-3.8,8.4h-2.4l13.8-30h2.2l13.8,30H170L166.2,31.6z M165.3,29.7l-7.9-17.3l-7.8,17.3
				H165.3z"/>
			<path class="st0" d="M174.4,10h11.9c3.1,0,5.9,0.6,8.3,1.9c2.4,1.3,4.3,3.1,5.6,5.3c1.3,2.3,2,4.9,2,7.7s-0.7,5.5-2,7.7
				c-1.3,2.3-3.2,4.1-5.6,5.3c-2.4,1.3-5.2,1.9-8.3,1.9h-11.9V10z M186.1,38c2.8,0,5.2-0.6,7.3-1.7c2.1-1.1,3.7-2.6,4.9-4.6
				c1.1-2,1.7-4.2,1.7-6.8s-0.6-4.8-1.7-6.8c-1.1-2-2.8-3.5-4.9-4.6c-2.1-1.1-4.6-1.7-7.3-1.7h-9.5V38H186.1z"/>
			<path class="st0" d="M206.4,10h2.2v30h-2.2V10z"/>
		</g>
		<g>
			<path class="st0" d="M213.3,10.3h-1.4V9.8h3.5v0.5h-1.4V14h-0.6V10.3z"/>
			<path class="st0" d="M219.4,14l0-3.1l-1.5,2.5h-0.3l-1.5-2.5v3h-0.6V9.8h0.5l1.7,2.9l1.7-2.9h0.5l0,4.2H219.4z"/>
		</g>
	</g>
</g>
</svg>
